<?xml version="1.0" encoding="iso-8859-1"?>
<!-- Generator: Adobe Illustrator 19.0.0, SVG Export Plug-In . SVG Version: 6.00 Build 0)  -->
<svg version="1.1" id="Layer_1" xmlns="http://www.w3.org/2000/svg" xmlns:xlink="http://www.w3.org/1999/xlink" x="0px" y="0px"
	 viewBox="0 0 501.551 501.551" style="enable-background:new 0 0 501.551 501.551;" xml:space="preserve">
<polygon style="fill:#F1543F;" points="189.127,109.714 318.694,109.714 432.588,0 303.02,0 "/>
<path style="fill:#F8B64C;" d="M342.727,168.229H158.824V87.771h183.902V168.229z M179.722,147.331h142.106v-38.661H179.722V147.331
	z"/>
<polygon style="fill:#FF7058;" points="318.694,109.714 189.127,109.714 74.188,0 204.8,0 "/>
<circle style="fill:#FFD15C;" cx="250.776" cy="308.245" r="193.306"/>
<path style="fill:#F8B64C;" d="M250.776,454.531c-80.457,0-146.286-65.829-146.286-146.286s65.829-146.286,146.286-146.286
	s146.286,65.829,146.286,146.286S331.233,454.531,250.776,454.531z"/>
<polygon style="fill:#FFD15C;" points="250.776,176.588 281.078,268.539 378.253,268.539 298.841,326.008 329.143,417.959 
	250.776,360.49 172.408,417.959 202.71,326.008 123.298,268.539 220.473,268.539 "/>
<g>
</g>
<g>
</g>
<g>
</g>
<g>
</g>
<g>
</g>
<g>
</g>
<g>
</g>
<g>
</g>
<g>
</g>
<g>
</g>
<g>
</g>
<g>
</g>
<g>
</g>
<g>
</g>
<g>
</g>
</svg>
